# xmcd CD database file
#
# Track frame offsets:
#	150
#	14707
#	30100
#	46250
#	67750
#	84197
#	100300
#	116787
#	143517
#	160507
#	178655
#	194905
#	218740
#	229342
#	239182
#	253097
#	266732
#	280760
#
# Disc length: 3944 seconds
#
# Revision: 0
# Processed by: cddbd v1.5.1PL0 Copyright (c) Steve Scherf et al.
# Submitted via: CDex 1.51
#
DISCID=fd0f6612
DTITLE=Various Artist - Discover America's Hearts and Spirits "Rockin' Beats"
DYEAR=1900
DGENRE=Rock
TTITLE0=The Paul Butterfield Blues Band - Born In Chicago
TTITLE1=Donnie Fritts - Three Hundred Pounds Of Hongry
TTITLE2=Delaney and Bonnie and Frlends - They Call Ti Rock and Roll Music
TTITLE3=Barbara Keith - A Stone's Throw Away
TTITLE4=Rod Taylor - Crossroads Of Ther World
TTITLE5=Roger Tillison - Down In The Flood
TTITLE6=Jorge Cakdcron - City Music
TTITLE7=Eric Weissberg and Deliverance - Concrete Canyon Boogie
TTITLE8=Jessse Davis - Ululu
TTITLE9=Mike Finnigan - Holy Cow
TTITLE10=William Truckaway - Breakaway
TTITLE11=Crazy Horse - I Don't Want To Talk About It
TTITLE12=James Luther Dickinson - Dixie Fried
TTITLE13=Tony Jow White - Saturday Night In Oak Grove Louisiana
TTITLE14=Crackin' - Nobody Else
TTITLE15=Jesse Colin Young - Reveal Your Dreams
TTITLE16=Danny Kortchmar - For Sentimental Reasons
TTITLE17=Delaney and Bonney and Friends - Never Ending Song Of Love
EXTD=
EXTT0=
EXTT1=
EXTT2=
EXTT3=
EXTT4=
EXTT5=
EXTT6=
EXTT7=
EXTT8=
EXTT9=
EXTT10=
EXTT11=
EXTT12=
EXTT13=
EXTT14=
EXTT15=
EXTT16=
EXTT17=
PLAYORDER=
